# xmcd
#
# Track frame offsets: 
#        150
#        14992
#        26632
#        41080
#        51432
#        67660
#        81252
#        91750
#        102767
#        112382
#        125002
#
# Disc length: 1900 seconds
#
# Revision: 4
# Processed by: cddbd v1.5.2PL0 Copyright (c) Steve Scherf et al.
# Submitted via: ExactAudioCopy v0.99pb5
#
DISCID=98076a0b
DTITLE=Olivia Newton John - Clearly Love
DYEAR=1975
DGENRE=Pop
TTITLE0=Something Better to Do
TTITLE1=Lovers
TTITLE2=Slow Down Jackson
TTITLE3=He's My Rock
TTITLE4=Sail into Tomorrow
TTITLE5=Crying, Laughing, Loving, Lying
TTITLE6=Clearly Love
TTITLE7=Let It Shine
TTITLE8=Summertime Blues
TTITLE9=Just a Lot of Folk (The Marshmallow Song)
TTITLE10=He Ain't Heavy... He's My Brother
EXTD=
EXTT0=
EXTT1=
EXTT2=
EXTT3=
EXTT4=
EXTT5=
EXTT6=
EXTT7=
EXTT8=
EXTT9=
EXTT10=
PLAYORDER=
